<svg id="svg" version="1.1" width="400" height="145.22747546833185" xmlns="http://www.w3.org/2000/svg" xmlns:xlink="http://www.w3.org/1999/xlink" style="display: block;"><g id="svgg"><path id="path0" d="M0.000 72.583 L 0.000 145.167 200.000 145.167 L 400.000 145.167 400.000 72.583 L 400.000 0.000 200.000 0.000 L 0.000 0.000 0.000 72.583 M55.417 3.833 C 57.680 4.080,58.783 4.294,61.417 4.995 C 72.260 7.883,81.865 19.037,83.251 30.349 C 83.407 31.625,83.424 31.640,84.993 31.915 C 87.337 32.328,90.245 33.155,91.731 33.832 C 92.108 34.004,92.904 34.362,93.500 34.628 C 97.146 36.252,101.835 40.056,104.540 43.583 C 114.422 56.471,112.804 74.211,100.717 85.480 L 99.127 86.962 99.685 87.439 C 120.673 105.408,110.574 139.035,83.250 142.159 C 80.481 142.476,29.391 142.391,29.268 142.070 C 29.212 141.925,29.167 135.737,29.167 128.320 C 29.167 120.902,29.148 114.816,29.125 114.794 C 29.102 114.773,22.896 114.716,15.333 114.669 L 1.583 114.583 1.538 59.500 C 1.513 29.204,1.533 4.248,1.583 4.042 L 1.673 3.667 27.795 3.668 C 43.762 3.669,54.500 3.733,55.417 3.833 M274.417 72.500 L 274.417 97.583 270.104 97.628 C 267.062 97.659,265.724 97.616,265.562 97.482 C 265.269 97.239,265.215 48.199,265.507 47.653 C 265.674 47.341,265.865 47.330,270.049 47.372 L 274.417 47.417 274.417 72.500 M165.608 49.894 C 167.186 50.205,169.223 50.905,169.859 51.354 C 170.102 51.526,170.384 51.667,170.484 51.667 C 170.584 51.667,170.667 51.742,170.667 51.833 C 170.667 51.925,170.747 52.000,170.845 52.000 C 171.418 52.000,173.455 53.815,174.642 55.383 C 175.700 56.781,176.267 57.959,176.786 59.833 C 177.125 61.061,177.170 65.131,176.855 66.167 C 176.109 68.625,175.129 70.362,173.692 71.777 C 172.650 72.802,172.645 72.648,173.750 73.409 C 181.123 78.488,180.511 89.981,172.591 95.151 C 169.128 97.412,168.456 97.500,154.732 97.500 L 143.500 97.500 143.500 73.661 L 143.500 49.823 143.875 49.664 C 144.564 49.373,164.012 49.579,165.608 49.894 M153.242 58.877 C 153.198 58.993,153.181 61.261,153.206 63.919 L 153.250 68.750 158.471 68.794 C 163.295 68.835,163.745 68.814,164.408 68.521 C 168.825 66.567,168.262 60.121,163.564 58.852 C 162.540 58.575,153.349 58.598,153.242 58.877 M204.250 62.577 C 206.783 63.038,210.777 64.587,211.333 65.322 C 211.379 65.383,211.679 65.613,212.000 65.834 C 214.406 67.487,216.772 70.549,217.988 73.583 C 218.062 73.767,218.201 74.104,218.298 74.333 C 218.396 74.563,218.521 74.975,218.578 75.250 C 218.635 75.525,218.764 76.050,218.864 76.417 C 219.130 77.384,219.231 82.906,219.000 83.830 C 218.495 85.854,218.304 86.486,217.889 87.500 C 217.394 88.712,216.912 89.662,216.792 89.664 C 216.723 89.666,216.666 89.760,216.665 89.875 C 216.662 90.171,215.420 91.787,214.259 93.005 C 207.459 100.134,195.776 100.400,188.521 93.590 C 181.204 86.723,181.199 74.037,188.510 67.268 C 189.624 66.236,191.527 64.833,191.813 64.833 C 191.916 64.833,192.000 64.777,192.000 64.707 C 192.000 64.638,192.244 64.476,192.542 64.347 C 192.840 64.218,193.458 63.944,193.917 63.739 C 196.720 62.480,201.048 61.993,204.250 62.577 M244.750 62.582 C 249.507 63.446,253.328 65.783,256.202 69.583 C 261.012 75.946,260.828 85.468,255.773 91.804 C 245.967 104.095,225.203 98.391,223.664 82.983 C 223.594 82.286,223.485 81.476,223.420 81.184 C 223.178 80.080,223.667 76.862,224.448 74.417 C 227.076 66.191,235.995 60.991,244.750 62.582 M301.833 62.580 C 309.816 64.154,315.273 70.309,315.998 78.555 C 316.145 80.231,315.996 83.602,315.758 83.987 C 315.680 84.113,311.928 84.167,303.170 84.167 C 296.308 84.167,290.576 84.212,290.431 84.268 C 290.018 84.426,291.317 86.784,292.350 87.749 C 295.990 91.155,303.404 90.921,306.686 87.298 C 307.167 86.767,307.158 86.763,311.083 89.049 C 312.183 89.689,313.308 90.340,313.583 90.495 C 315.430 91.536,310.773 95.869,306.083 97.473 C 295.804 100.988,285.245 96.351,281.670 86.750 C 280.343 83.184,280.356 76.952,281.699 73.833 C 281.797 73.604,281.952 73.229,282.043 73.000 C 283.653 68.931,287.185 65.384,291.333 63.672 C 292.298 63.274,293.081 63.053,295.417 62.520 C 296.512 62.270,300.449 62.307,301.833 62.580 M339.685 62.576 C 342.411 63.098,345.231 64.545,346.821 66.237 C 347.394 66.847,347.500 66.652,347.500 64.996 C 347.500 63.676,347.537 63.492,347.838 63.331 C 348.403 63.029,356.303 63.183,356.504 63.500 C 356.677 63.775,356.733 96.487,356.561 97.128 L 356.460 97.505 352.022 97.461 L 347.583 97.417 347.535 95.875 C 347.479 94.054,347.491 94.059,346.004 95.307 C 337.633 102.336,323.969 97.444,320.706 86.250 C 320.022 83.903,319.939 83.267,319.939 80.417 C 319.939 68.928,329.192 60.568,339.685 62.576 M385.907 62.519 C 387.084 62.735,389.724 63.697,390.000 64.011 C 390.046 64.063,390.458 64.356,390.917 64.661 C 392.907 65.990,394.420 68.001,395.373 70.583 C 396.233 72.912,396.250 73.211,396.250 85.750 L 396.250 97.417 391.796 97.461 L 387.341 97.505 387.253 97.128 C 387.205 96.920,387.147 91.912,387.124 86.000 L 387.083 75.250 386.538 74.135 C 384.267 69.493,376.562 69.677,374.237 74.428 C 373.465 76.007,373.445 76.279,373.346 87.083 L 373.250 97.417 368.845 97.461 C 365.432 97.496,364.410 97.458,364.306 97.294 C 364.112 96.989,364.135 63.808,364.330 63.500 C 364.528 63.186,372.430 63.028,372.989 63.328 C 373.276 63.481,373.327 63.706,373.369 64.985 L 373.417 66.465 374.435 65.524 C 376.125 63.964,377.716 63.166,380.417 62.526 C 381.359 62.302,384.706 62.298,385.907 62.519 M295.667 70.989 C 293.369 71.719,291.783 73.090,290.750 75.240 C 289.809 77.195,288.951 77.000,298.500 77.000 C 305.951 77.000,306.833 76.972,306.833 76.739 C 306.833 75.489,304.711 72.607,303.176 71.771 C 301.062 70.621,297.869 70.288,295.667 70.989 M335.780 71.263 C 333.226 71.881,331.198 73.492,329.974 75.875 C 329.577 76.647,329.512 76.824,329.259 77.799 C 328.788 79.617,329.047 83.591,329.680 84.242 C 329.764 84.329,329.833 84.502,329.833 84.626 C 329.833 84.750,330.149 85.316,330.534 85.884 C 333.683 90.523,340.306 91.166,344.788 87.269 C 347.032 85.318,348.018 80.553,346.896 77.083 C 345.453 72.624,340.617 70.091,335.780 71.263 M199.083 71.403 C 194.999 72.235,192.167 75.929,192.167 80.425 C 192.167 92.342,209.600 92.739,210.125 80.833 C 210.216 78.755,209.553 75.928,208.835 75.333 C 208.779 75.287,208.554 74.993,208.334 74.678 C 206.458 71.994,202.705 70.666,199.083 71.403 M239.500 71.410 C 231.217 73.299,229.944 85.101,237.631 88.750 C 241.891 90.772,247.521 88.962,249.504 84.934 C 253.100 77.629,247.201 69.654,239.500 71.410 M153.367 77.700 C 153.025 78.042,153.086 88.267,153.430 88.399 C 153.870 88.568,163.892 88.512,164.823 88.335 C 170.659 87.229,170.633 79.082,164.789 77.689 C 163.653 77.419,153.639 77.428,153.367 77.700 " stroke="none" fill="#ffffff" fill-rule="evenodd"></path><path id="path1" d="M29.333 73.087 L 29.333 114.508 42.708 114.437 C 55.695 114.368,57.910 114.304,58.242 113.985 C 58.329 113.902,58.718 113.833,59.107 113.833 C 59.496 113.833,59.860 113.758,59.917 113.667 C 59.973 113.575,60.204 113.500,60.429 113.500 C 60.654 113.500,60.968 113.434,61.127 113.353 C 61.286 113.273,62.054 113.000,62.833 112.746 C 81.089 106.811,88.993 84.186,78.699 67.333 C 77.207 64.890,74.779 62.028,72.792 60.371 C 71.387 59.200,71.336 59.420,73.480 57.391 C 78.950 52.217,82.184 45.895,83.148 38.491 C 83.403 36.528,83.394 32.127,83.133 31.867 C 82.979 31.713,76.756 31.667,56.133 31.667 L 29.333 31.667 29.333 73.087 M265.667 72.583 L 265.667 97.333 270.000 97.333 L 274.333 97.333 274.333 72.583 L 274.333 47.833 270.000 47.833 L 265.667 47.833 265.667 72.583 M143.833 73.594 L 143.833 97.187 155.375 97.119 C 167.592 97.047,167.179 97.072,169.583 96.253 C 179.548 92.858,181.812 79.358,173.389 73.557 C 172.288 72.798,172.280 72.887,173.580 71.447 C 174.630 70.284,175.833 68.494,175.833 68.096 C 175.833 67.988,175.895 67.829,175.971 67.742 C 176.365 67.288,176.833 64.822,176.833 63.200 C 176.832 56.584,172.236 51.447,165.250 50.257 C 164.017 50.047,161.976 50.001,153.792 50.001 L 143.833 50.000 143.833 73.594 M164.770 58.948 C 167.333 60.203,168.540 63.668,167.254 66.083 C 166.544 67.416,165.879 68.106,164.667 68.766 C 163.911 69.177,153.227 69.363,152.977 68.969 C 152.813 68.710,152.782 58.774,152.944 58.611 C 153.006 58.550,155.485 58.500,158.455 58.500 L 163.854 58.500 164.770 58.948 M199.500 62.657 C 199.271 62.736,198.751 62.808,198.345 62.817 C 197.569 62.834,197.390 62.879,195.250 63.594 C 182.300 67.918,179.162 85.503,189.796 94.162 C 191.109 95.231,193.459 96.675,193.877 96.669 C 193.947 96.668,194.322 96.811,194.710 96.987 C 197.492 98.250,202.859 98.473,206.167 97.463 C 211.606 95.803,215.549 92.300,217.662 87.250 C 219.367 83.172,219.381 77.814,217.697 73.640 C 215.370 67.874,209.979 63.641,203.917 62.822 C 202.123 62.579,199.962 62.499,199.500 62.657 M240.000 62.657 C 239.771 62.736,239.271 62.808,238.888 62.817 C 236.654 62.870,232.971 64.438,230.405 66.428 C 228.908 67.589,227.996 68.560,226.884 70.176 C 225.806 71.743,224.500 74.491,224.500 75.192 C 224.500 75.364,224.433 75.635,224.351 75.794 C 223.853 76.763,223.632 81.956,224.017 83.623 C 224.652 86.372,224.750 86.665,225.602 88.394 C 227.665 92.582,231.988 96.274,236.083 97.347 C 236.358 97.419,237.071 97.607,237.667 97.764 C 243.761 99.374,251.768 96.514,255.676 91.333 C 255.987 90.921,256.281 90.546,256.329 90.500 C 256.437 90.397,256.731 89.883,257.426 88.583 C 259.130 85.396,259.768 80.647,259.003 76.833 C 258.902 76.329,258.777 75.672,258.725 75.373 C 258.672 75.075,258.563 74.789,258.482 74.739 C 258.400 74.688,258.333 74.531,258.333 74.390 C 258.333 73.771,256.756 70.853,255.645 69.415 C 252.889 65.851,248.727 63.423,244.333 62.816 C 242.625 62.581,240.456 62.501,240.000 62.657 M297.083 62.659 C 296.808 62.733,296.231 62.803,295.800 62.814 C 294.593 62.844,292.392 63.480,290.667 64.297 C 277.900 70.342,277.645 89.833,290.250 96.123 C 295.569 98.777,303.432 98.783,308.285 96.137 C 310.544 94.905,314.311 91.479,313.814 91.108 C 313.779 91.082,313.450 90.886,313.083 90.673 C 312.717 90.460,311.517 89.762,310.417 89.123 C 309.317 88.484,308.186 87.822,307.904 87.651 L 307.391 87.342 306.135 88.304 C 300.528 92.603,292.303 90.807,290.013 84.783 C 289.632 83.783,288.956 83.833,302.748 83.833 C 312.618 83.833,315.343 83.789,315.448 83.625 C 315.714 83.214,315.707 78.490,315.438 77.083 C 315.058 75.091,314.988 74.781,314.838 74.417 C 314.762 74.233,314.609 73.821,314.497 73.500 C 312.570 67.981,307.162 63.561,301.417 62.812 C 299.634 62.579,297.639 62.509,297.083 62.659 M335.083 62.656 C 334.808 62.732,334.268 62.803,333.883 62.814 C 333.498 62.824,333.010 62.899,332.800 62.979 C 332.589 63.059,332.004 63.259,331.500 63.423 C 328.835 64.291,325.635 66.664,323.869 69.083 C 323.535 69.542,323.221 69.954,323.172 70.000 C 322.694 70.448,321.333 73.493,320.825 75.250 C 320.248 77.247,319.978 81.668,320.332 83.333 C 321.500 88.831,323.551 92.283,327.333 95.115 C 333.236 99.536,341.796 99.097,346.718 94.121 C 347.624 93.206,347.737 93.330,347.833 95.347 L 347.917 97.083 352.000 97.083 L 356.083 97.083 356.083 80.333 L 356.083 63.583 352.000 63.583 L 347.917 63.583 347.870 65.451 C 347.814 67.653,347.839 67.643,346.167 66.121 C 344.639 64.730,342.721 63.654,340.833 63.130 C 339.349 62.717,335.894 62.433,335.083 62.656 M382.145 62.576 C 382.087 62.635,381.524 62.748,380.895 62.827 C 379.121 63.050,376.990 63.804,376.086 64.528 C 374.831 65.534,374.469 65.858,374.007 66.383 C 373.130 67.382,373.000 67.248,373.000 65.351 C 373.000 64.001,372.952 63.684,372.736 63.601 C 372.209 63.399,364.911 63.489,364.700 63.700 C 364.467 63.933,364.407 96.596,364.639 96.961 C 364.743 97.125,365.699 97.163,368.845 97.128 L 372.917 97.083 373.000 86.633 C 373.064 78.587,373.131 76.135,373.292 75.975 C 373.406 75.860,373.500 75.623,373.500 75.448 C 373.500 74.407,375.148 72.346,376.717 71.427 C 379.886 69.570,384.898 70.564,386.469 73.361 C 387.444 75.097,387.410 74.666,387.500 86.333 L 387.583 97.083 391.750 97.083 L 395.917 97.083 395.917 85.667 C 395.917 73.715,395.886 73.117,395.163 71.000 C 394.432 68.862,393.754 67.757,392.248 66.252 C 391.264 65.268,391.056 65.091,390.073 64.410 C 389.653 64.119,388.218 63.482,387.083 63.083 C 386.198 62.771,382.343 62.376,382.145 62.576 M300.684 70.468 C 303.694 71.010,307.167 74.394,307.167 76.786 C 307.167 77.521,307.423 77.500,298.435 77.500 C 288.907 77.500,289.431 77.587,289.968 76.093 C 291.531 71.747,295.680 69.569,300.684 70.468 M341.547 71.219 C 350.632 74.516,349.637 88.237,340.186 89.999 C 333.839 91.183,328.668 86.844,328.667 80.333 C 328.666 73.506,335.169 68.904,341.547 71.219 M203.166 71.083 C 212.750 73.099,213.057 87.244,203.569 89.670 C 199.668 90.668,195.569 89.208,193.498 86.083 C 188.545 78.612,194.564 69.274,203.166 71.083 M243.597 71.093 C 244.676 71.343,246.589 72.117,247.034 72.483 C 247.153 72.581,247.493 72.856,247.790 73.094 C 253.254 77.471,251.401 87.258,244.685 89.498 C 235.995 92.395,228.699 82.638,233.805 74.947 C 235.939 71.732,239.801 70.212,243.597 71.093 M165.667 77.550 C 170.750 79.397,170.790 86.600,165.726 88.495 C 164.628 88.905,153.428 89.028,153.033 88.633 C 152.816 88.416,152.731 77.658,152.944 77.444 C 153.164 77.224,165.042 77.323,165.667 77.550 " stroke="none" fill="#06366b" fill-rule="evenodd"></path><path id="path2" d="M1.910 4.208 C 1.867 4.323,1.851 29.167,1.874 59.417 L 1.917 114.417 15.625 114.459 L 29.333 114.502 29.333 73.083 L 29.333 31.664 56.309 31.707 C 80.244 31.745,83.269 31.722,83.150 31.500 C 83.076 31.363,82.857 30.387,82.663 29.333 C 82.469 28.279,82.249 27.229,82.175 27.000 C 82.100 26.771,81.946 26.246,81.833 25.833 C 78.708 14.441,68.182 5.727,55.671 4.175 C 53.469 3.902,2.015 3.934,1.910 4.208 M265.577 47.875 C 265.533 47.990,265.517 59.183,265.541 72.750 L 265.583 97.417 269.958 97.421 L 274.333 97.425 270.000 97.376 L 265.667 97.328 265.667 72.583 L 265.667 47.839 270.042 47.792 L 274.417 47.744 270.036 47.705 C 266.657 47.676,265.638 47.714,265.577 47.875 M143.744 50.042 C 143.700 50.156,143.684 60.825,143.707 73.750 L 143.750 97.250 154.474 97.293 C 160.372 97.316,165.538 97.279,165.953 97.210 C 166.368 97.140,161.561 97.106,155.271 97.134 L 143.833 97.184 143.833 73.593 L 143.833 50.003 153.958 49.958 L 164.083 49.914 153.953 49.874 C 145.972 49.842,143.806 49.878,143.744 50.042 M165.667 50.328 C 166.537 50.491,167.540 50.747,167.895 50.896 C 168.250 51.045,168.625 51.163,168.729 51.158 C 168.832 51.153,168.542 50.996,168.083 50.809 C 167.217 50.457,165.069 49.988,164.444 50.016 C 164.245 50.024,164.796 50.165,165.667 50.328 M169.667 51.560 C 169.667 51.600,170.215 51.974,170.885 52.392 C 172.156 53.183,173.158 54.063,174.240 55.333 C 174.855 56.056,174.861 56.059,174.414 55.417 C 173.440 54.019,169.667 50.954,169.667 51.560 M175.449 57.248 C 175.602 57.568,175.756 57.800,175.792 57.763 C 175.868 57.687,175.362 56.667,175.248 56.667 C 175.206 56.667,175.297 56.928,175.449 57.248 M152.944 58.611 C 152.792 58.763,152.808 68.702,152.961 68.943 C 153.028 69.048,153.083 66.742,153.083 63.818 C 153.083 60.893,153.077 58.500,153.069 58.500 C 153.062 58.500,153.006 58.550,152.944 58.611 M163.347 58.560 C 163.385 58.593,163.642 58.670,163.917 58.732 C 164.282 58.813,164.349 58.798,164.167 58.674 C 163.942 58.522,163.180 58.416,163.347 58.560 M176.254 59.167 C 176.312 59.396,176.462 60.033,176.587 60.583 L 176.815 61.583 176.721 60.681 C 176.670 60.185,176.520 59.548,176.388 59.265 C 176.205 58.871,176.173 58.848,176.254 59.167 M165.250 59.272 C 165.342 59.352,165.717 59.680,166.083 60.000 L 166.749 60.583 166.250 60.027 C 165.975 59.722,165.600 59.394,165.417 59.299 C 165.233 59.204,165.158 59.192,165.250 59.272 M176.893 63.167 C 176.893 64.037,176.922 64.394,176.956 63.958 C 176.990 63.523,176.990 62.810,176.956 62.375 C 176.922 61.940,176.893 62.296,176.893 63.167 M198.667 62.667 C 198.101 62.786,198.099 62.790,198.583 62.795 C 198.858 62.798,199.271 62.740,199.500 62.667 C 200.046 62.492,199.498 62.492,198.667 62.667 M202.667 62.667 C 202.896 62.740,203.308 62.799,203.583 62.797 L 204.083 62.794 203.583 62.667 C 203.308 62.597,202.896 62.538,202.667 62.536 L 202.250 62.533 202.667 62.667 M239.083 62.667 L 238.583 62.794 239.083 62.797 C 239.358 62.799,239.771 62.740,240.000 62.667 L 240.417 62.533 240.000 62.536 C 239.771 62.538,239.358 62.597,239.083 62.667 M243.167 62.658 C 243.583 62.800,244.617 62.888,244.486 62.771 C 244.448 62.737,244.042 62.666,243.583 62.613 C 243.021 62.548,242.886 62.563,243.167 62.658 M296.000 62.667 L 295.417 62.789 296.000 62.792 C 296.321 62.793,296.808 62.737,297.083 62.667 L 297.583 62.539 297.083 62.542 C 296.808 62.543,296.321 62.599,296.000 62.667 M300.250 62.667 C 300.433 62.745,300.808 62.806,301.083 62.802 L 301.583 62.794 301.083 62.667 C 300.808 62.597,300.433 62.536,300.250 62.531 L 299.917 62.523 300.250 62.667 M334.167 62.667 L 333.750 62.800 334.167 62.797 C 334.396 62.795,334.808 62.737,335.083 62.667 L 335.583 62.539 335.083 62.536 C 334.808 62.535,334.396 62.593,334.167 62.667 M338.083 62.667 C 338.358 62.737,338.808 62.794,339.083 62.794 C 339.504 62.795,339.477 62.773,338.917 62.657 C 338.072 62.482,337.390 62.490,338.083 62.667 M380.917 62.667 L 380.417 62.794 380.917 62.797 C 381.192 62.799,381.604 62.740,381.833 62.667 L 382.250 62.533 381.833 62.536 C 381.604 62.538,381.192 62.597,380.917 62.667 M384.750 62.667 C 384.933 62.745,385.233 62.810,385.417 62.810 L 385.750 62.810 385.417 62.667 C 385.233 62.588,384.933 62.523,384.750 62.523 L 384.417 62.523 384.750 62.667 M167.583 63.833 C 167.583 64.468,167.634 64.859,167.697 64.702 C 167.759 64.545,167.810 64.154,167.810 63.833 C 167.810 63.512,167.759 63.122,167.697 62.965 C 167.634 62.808,167.583 63.199,167.583 63.833 M340.333 63.000 C 340.471 63.089,340.696 63.162,340.833 63.162 C 341.056 63.162,341.056 63.144,340.833 63.000 C 340.696 62.911,340.471 62.838,340.333 62.838 C 340.111 62.838,340.111 62.856,340.333 63.000 M379.167 63.000 C 378.944 63.144,378.944 63.162,379.167 63.162 C 379.304 63.162,379.529 63.089,379.667 63.000 C 379.889 62.856,379.889 62.838,379.667 62.838 C 379.529 62.838,379.304 62.911,379.167 63.000 M305.000 63.750 C 305.229 63.881,305.492 63.988,305.583 63.988 C 305.675 63.988,305.563 63.881,305.333 63.750 C 305.104 63.619,304.842 63.512,304.750 63.512 C 304.658 63.512,304.771 63.619,305.000 63.750 M347.778 63.611 C 347.717 63.672,347.667 64.460,347.667 65.361 C 347.667 67.266,347.572 67.349,346.575 66.319 C 346.213 65.945,345.692 65.485,345.417 65.296 C 345.142 65.108,345.435 65.433,346.069 66.018 C 347.838 67.654,347.804 67.666,347.865 65.407 C 347.893 64.358,347.910 63.499,347.903 63.500 C 347.895 63.500,347.839 63.550,347.778 63.611 M356.083 80.300 L 356.083 97.083 352.000 97.083 L 347.917 97.083 347.833 95.347 C 347.737 93.330,347.624 93.206,346.718 94.121 C 345.811 95.039,344.724 95.877,343.667 96.477 C 343.162 96.763,342.821 96.998,342.907 96.998 C 343.257 97.002,345.315 95.638,346.276 94.765 C 347.640 93.527,347.666 93.539,347.669 95.375 C 347.673 97.518,347.278 97.346,352.095 97.295 L 356.250 97.250 356.292 80.509 C 356.316 71.302,356.278 63.712,356.209 63.642 C 356.140 63.573,356.083 71.069,356.083 80.300 M364.434 63.764 C 364.303 64.107,364.307 96.466,364.438 96.958 L 364.539 97.333 368.752 97.333 C 372.439 97.333,372.977 97.300,373.066 97.070 C 373.121 96.925,373.149 92.481,373.127 87.195 L 373.087 77.583 373.002 87.333 L 372.917 97.083 368.845 97.128 C 365.699 97.163,364.743 97.125,364.639 96.961 C 364.407 96.596,364.467 63.933,364.700 63.700 C 364.834 63.566,364.840 63.500,364.718 63.500 C 364.618 63.500,364.490 63.619,364.434 63.764 M372.829 63.610 C 372.929 63.659,373.000 64.385,373.000 65.347 C 373.000 67.202,373.111 67.341,373.917 66.500 C 374.180 66.225,374.341 66.000,374.273 66.000 C 374.206 66.000,373.972 66.206,373.754 66.458 C 373.253 67.037,373.188 66.886,373.128 65.013 C 373.097 64.039,373.018 63.597,372.871 63.568 C 372.754 63.544,372.735 63.563,372.829 63.610 M208.737 64.258 C 209.188 64.481,209.585 64.637,209.619 64.604 C 209.689 64.533,208.233 63.829,208.043 63.842 C 207.974 63.847,208.286 64.034,208.737 64.258 M233.702 64.196 C 233.309 64.387,233.015 64.570,233.048 64.604 C 233.082 64.637,233.478 64.481,233.929 64.258 C 234.381 64.034,234.675 63.851,234.583 63.850 C 234.492 63.850,234.095 64.006,233.702 64.196 M343.167 64.009 C 343.601 64.304,344.333 64.678,344.333 64.604 C 344.333 64.512,343.183 63.833,343.032 63.836 C 342.969 63.837,343.029 63.915,343.167 64.009 M192.625 64.511 C 192.281 64.693,192.000 64.879,192.000 64.924 C 192.000 64.998,193.316 64.383,193.486 64.230 C 193.678 64.056,193.177 64.220,192.625 64.511 M249.667 64.408 C 249.667 64.454,249.892 64.608,250.167 64.750 C 250.442 64.892,250.667 64.971,250.667 64.925 C 250.667 64.879,250.442 64.726,250.167 64.583 C 249.892 64.441,249.667 64.362,249.667 64.408 M328.625 64.595 C 328.002 64.933,328.040 65.074,328.667 64.750 C 328.942 64.608,329.167 64.456,329.167 64.412 C 329.167 64.305,329.149 64.311,328.625 64.595 M375.282 65.042 C 374.981 65.340,374.926 65.425,375.159 65.231 C 375.392 65.037,375.733 64.795,375.917 64.694 C 376.100 64.593,376.155 64.508,376.039 64.505 C 375.923 64.502,375.582 64.744,375.282 65.042 M232.292 64.929 C 231.669 65.267,231.707 65.407,232.333 65.083 C 232.608 64.941,232.833 64.789,232.833 64.746 C 232.833 64.638,232.815 64.645,232.292 64.929 M288.706 65.254 C 288.226 65.578,287.833 65.878,287.833 65.923 C 287.833 65.967,288.246 65.730,288.750 65.395 C 289.551 64.863,289.786 64.667,289.623 64.667 C 289.599 64.667,289.186 64.931,288.706 65.254 M307.167 64.716 C 307.167 64.754,307.598 65.070,308.125 65.418 C 308.652 65.765,308.954 65.903,308.796 65.724 C 308.517 65.409,307.167 64.573,307.167 64.716 M391.267 65.307 C 391.967 65.818,393.168 67.068,393.461 67.591 C 393.560 67.769,393.694 67.861,393.759 67.797 C 393.911 67.645,391.146 64.833,390.845 64.833 C 390.720 64.833,390.909 65.047,391.267 65.307 M230.994 65.845 L 230.417 66.357 231.042 65.909 C 231.594 65.513,231.774 65.333,231.619 65.333 C 231.592 65.333,231.311 65.564,230.994 65.845 M189.004 67.125 C 187.808 68.216,186.080 70.358,185.554 71.404 C 185.171 72.164,185.509 71.745,186.417 70.333 C 186.859 69.646,187.927 68.390,188.790 67.542 C 189.653 66.694,190.331 66.000,190.298 66.000 C 190.264 66.000,189.682 66.506,189.004 67.125 M212.952 66.908 C 213.338 67.243,214.013 67.909,214.452 68.388 C 214.891 68.867,215.140 69.107,215.006 68.921 C 214.549 68.289,213.252 66.975,212.750 66.636 C 212.472 66.448,212.562 66.569,212.952 66.908 M229.288 67.175 C 228.769 67.639,228.182 68.257,227.984 68.550 C 227.730 68.926,227.814 68.870,228.270 68.360 C 228.626 67.963,229.254 67.346,229.667 66.990 C 230.079 66.634,230.375 66.341,230.325 66.338 C 230.274 66.336,229.808 66.712,229.288 67.175 M325.245 67.375 L 324.250 68.417 325.292 67.422 C 325.865 66.875,326.333 66.406,326.333 66.380 C 326.333 66.257,326.169 66.407,325.245 67.375 M254.254 67.835 C 254.893 68.523,255.665 69.385,255.968 69.751 C 256.272 70.117,256.185 69.967,255.775 69.417 C 255.365 68.867,254.594 68.004,254.061 67.500 C 253.154 66.643,253.167 66.665,254.254 67.835 M285.910 67.542 L 285.083 68.417 285.958 67.590 C 286.440 67.135,286.833 66.741,286.833 66.715 C 286.833 66.590,286.679 66.729,285.910 67.542 M310.417 67.166 C 310.692 67.486,310.935 67.780,310.958 67.819 C 310.981 67.857,311.036 67.853,311.081 67.808 C 311.125 67.764,310.882 67.470,310.540 67.155 L 309.917 66.583 310.417 67.166 M165.660 68.012 L 165.083 68.524 165.708 68.076 C 166.261 67.679,166.440 67.500,166.285 67.500 C 166.259 67.500,165.978 67.730,165.660 68.012 M164.167 68.760 C 163.795 68.901,163.705 68.982,163.917 68.985 C 164.100 68.987,164.438 68.881,164.667 68.750 C 165.176 68.459,164.951 68.464,164.167 68.760 M284.729 68.875 C 284.237 69.437,283.950 69.833,284.035 69.833 C 284.077 69.833,284.352 69.533,284.647 69.167 C 285.219 68.455,285.277 68.251,284.729 68.875 M394.474 69.292 C 394.647 69.635,394.886 70.217,395.005 70.583 C 395.124 70.950,395.250 71.163,395.286 71.057 C 395.356 70.849,394.417 68.667,394.257 68.667 C 394.204 68.667,394.301 68.948,394.474 69.292 M175.078 69.542 L 174.813 70.083 175.153 69.667 C 175.480 69.265,175.587 69.000,175.421 69.000 C 175.377 69.000,175.223 69.244,175.078 69.542 M312.798 70.083 C 312.977 70.358,313.360 71.052,313.648 71.625 C 313.936 72.198,314.209 72.667,314.254 72.667 C 314.404 72.667,313.214 70.428,312.838 70.000 L 312.471 69.583 312.798 70.083 M173.621 71.405 C 172.498 72.645,172.357 72.892,172.665 73.082 C 172.761 73.142,172.786 73.071,172.725 72.912 C 172.656 72.731,172.865 72.382,173.356 71.862 C 174.369 70.790,174.905 70.167,174.817 70.167 C 174.776 70.167,174.238 70.724,173.621 71.405 M297.532 70.308 C 297.320 70.368,297.831 70.417,298.667 70.417 C 299.502 70.417,300.013 70.368,299.802 70.308 C 299.590 70.249,299.079 70.200,298.667 70.200 C 298.254 70.200,297.743 70.249,297.532 70.308 M256.500 70.633 C 256.500 70.707,256.575 70.842,256.667 70.934 C 256.759 71.026,257.103 71.585,257.431 72.176 C 257.759 72.767,257.979 73.100,257.921 72.917 C 257.658 72.098,256.500 70.237,256.500 70.633 M295.667 70.669 C 295.491 70.784,295.590 70.801,296.000 70.726 C 296.719 70.594,296.854 70.499,296.319 70.503 C 296.098 70.504,295.804 70.579,295.667 70.669 M300.514 70.559 C 300.552 70.592,300.846 70.667,301.167 70.726 C 301.577 70.801,301.676 70.784,301.500 70.669 C 301.274 70.521,300.349 70.418,300.514 70.559 M379.250 70.598 C 380.003 70.717,382.846 70.758,382.560 70.645 C 382.389 70.578,381.500 70.528,380.583 70.534 C 379.667 70.540,379.067 70.569,379.250 70.598 M337.542 70.788 C 337.885 70.824,338.448 70.824,338.792 70.788 C 339.135 70.752,338.854 70.723,338.167 70.723 C 337.479 70.723,337.198 70.752,337.542 70.788 M200.463 70.956 C 200.855 70.991,201.455 70.990,201.796 70.954 C 202.137 70.919,201.817 70.890,201.083 70.890 C 200.350 70.891,200.071 70.920,200.463 70.956 M240.963 70.956 C 241.355 70.991,241.955 70.990,242.296 70.954 C 242.637 70.919,242.317 70.890,241.583 70.890 C 240.850 70.891,240.571 70.920,240.963 70.956 M293.926 71.360 C 292.297 72.201,289.990 74.943,290.003 76.023 C 290.004 76.148,290.261 75.725,290.574 75.083 C 291.356 73.477,292.674 72.143,294.202 71.411 C 294.865 71.093,295.297 70.837,295.162 70.841 C 295.027 70.846,294.471 71.079,293.926 71.360 M335.875 70.948 C 336.035 70.990,336.298 70.990,336.458 70.948 C 336.619 70.906,336.487 70.872,336.167 70.872 C 335.846 70.872,335.715 70.906,335.875 70.948 M339.875 70.948 C 340.035 70.990,340.298 70.990,340.458 70.948 C 340.619 70.906,340.487 70.872,340.167 70.872 C 339.846 70.872,339.715 70.906,339.875 70.948 M377.333 71.083 C 376.789 71.394,376.979 71.398,377.689 71.090 C 377.998 70.956,378.137 70.846,378.000 70.846 C 377.863 70.845,377.563 70.952,377.333 71.083 M202.833 71.167 C 203.063 71.240,203.438 71.299,203.667 71.297 C 204.041 71.294,204.032 71.281,203.583 71.167 C 202.878 70.987,202.273 70.987,202.833 71.167 M239.083 71.167 C 238.634 71.281,238.626 71.294,239.000 71.297 C 239.229 71.299,239.604 71.240,239.833 71.167 C 240.394 70.987,239.788 70.987,239.083 71.167 M384.167 71.443 C 384.579 71.685,385.065 72.003,385.247 72.150 C 385.554 72.398,385.562 72.397,385.358 72.133 C 385.129 71.837,383.793 70.999,383.554 71.002 C 383.478 71.002,383.754 71.201,384.167 71.443 M303.000 71.390 C 303.000 71.433,303.323 71.658,303.718 71.889 C 305.205 72.761,307.104 75.623,306.969 76.791 L 306.917 77.250 298.502 77.250 L 290.087 77.250 289.992 76.750 C 289.899 76.254,289.897 76.253,289.762 76.654 C 289.479 77.493,289.551 77.500,298.435 77.500 C 302.947 77.500,306.758 77.454,306.903 77.399 C 307.623 77.123,306.584 74.431,305.189 72.956 C 304.477 72.203,303.000 71.147,303.000 71.390 M395.348 71.500 C 395.353 71.637,395.421 71.900,395.500 72.083 L 395.643 72.417 395.652 72.083 C 395.657 71.900,395.589 71.637,395.500 71.500 C 395.356 71.278,395.339 71.278,395.348 71.500 M216.817 71.750 C 217.098 72.294,217.328 72.595,217.327 72.417 C 217.326 72.325,217.173 72.063,216.985 71.833 C 216.759 71.557,216.702 71.529,216.817 71.750 M196.625 71.929 C 195.979 72.279,196.052 72.400,196.708 72.066 C 197.337 71.747,197.448 71.664,197.236 71.673 C 197.152 71.677,196.877 71.792,196.625 71.929 M282.575 72.182 C 282.429 72.466,282.338 72.727,282.375 72.763 C 282.411 72.800,282.565 72.568,282.717 72.248 C 283.060 71.529,282.941 71.474,282.575 72.182 M342.897 71.869 C 344.816 73.180,345.711 74.090,346.514 75.547 C 346.778 76.025,346.995 76.342,346.995 76.250 C 347.003 75.411,344.661 72.721,343.326 72.036 C 342.917 71.826,342.725 71.751,342.897 71.869 M206.253 72.439 C 206.618 72.680,207.291 73.224,207.749 73.647 L 208.582 74.417 207.916 73.693 C 207.264 72.985,205.988 72.000,205.723 72.000 C 205.649 72.000,205.888 72.197,206.253 72.439 M236.158 72.478 C 235.750 72.741,235.154 73.244,234.833 73.594 C 234.327 74.147,234.370 74.126,235.156 73.437 C 235.655 73.000,236.273 72.534,236.531 72.401 C 236.789 72.267,237.000 72.123,237.000 72.079 C 237.000 71.947,236.927 71.982,236.158 72.478 M246.167 72.068 C 246.167 72.101,246.354 72.251,246.583 72.401 C 246.813 72.551,247.000 72.610,247.000 72.531 C 247.000 72.452,246.813 72.301,246.583 72.197 C 246.354 72.093,246.167 72.034,246.167 72.068 M375.075 72.708 L 374.417 73.417 375.125 72.758 C 375.784 72.145,375.910 72.000,375.784 72.000 C 375.757 72.000,375.438 72.319,375.075 72.708 M184.742 72.958 C 184.327 73.943,183.832 75.469,183.850 75.703 C 183.859 75.821,183.963 75.617,184.081 75.250 C 184.199 74.883,184.489 74.077,184.724 73.458 C 185.176 72.270,185.189 71.895,184.742 72.958 M195.417 72.702 C 194.764 73.169,193.707 74.274,193.479 74.726 C 193.380 74.923,193.550 74.786,193.858 74.422 C 194.399 73.782,194.796 73.402,195.667 72.687 C 196.214 72.237,196.052 72.247,195.417 72.702 M385.673 72.432 C 385.681 72.646,386.498 73.619,386.499 73.417 C 386.499 73.325,386.312 73.032,386.083 72.766 C 385.854 72.499,385.669 72.349,385.673 72.432 M247.638 73.107 C 247.943 73.369,248.393 73.811,248.638 74.090 C 248.883 74.368,249.012 74.481,248.925 74.340 C 248.640 73.877,247.757 72.976,247.417 72.801 C 247.233 72.707,247.333 72.845,247.638 73.107 M321.194 73.666 C 320.981 74.217,320.844 74.761,320.890 74.875 C 320.942 75.005,320.979 74.978,320.987 74.805 C 320.994 74.653,321.152 74.172,321.339 73.738 C 321.525 73.303,321.656 72.884,321.630 72.806 C 321.604 72.728,321.408 73.115,321.194 73.666 M331.333 73.417 C 330.928 73.829,330.635 74.167,330.681 74.167 C 330.726 74.167,331.095 73.829,331.500 73.417 C 331.905 73.004,332.199 72.667,332.153 72.667 C 332.107 72.667,331.738 73.004,331.333 73.417 M395.700 73.167 C 395.700 73.396,395.760 73.771,395.833 74.000 L 395.967 74.417 395.967 74.000 C 395.967 73.771,395.907 73.396,395.833 73.167 L 395.700 72.750 395.700 73.167 M174.750 74.711 C 175.483 75.420,176.118 76.000,176.161 76.000 C 176.301 76.000,174.429 74.150,173.917 73.781 C 173.642 73.583,174.017 74.002,174.750 74.711 M373.694 74.757 C 373.587 74.991,373.503 75.273,373.507 75.383 C 373.510 75.493,373.624 75.328,373.759 75.016 C 374.044 74.360,373.984 74.121,373.694 74.757 M208.910 75.125 C 209.167 75.515,209.409 75.833,209.448 75.833 C 209.568 75.833,208.930 74.819,208.680 74.612 C 208.550 74.505,208.654 74.735,208.910 75.125 M315.003 75.014 C 315.004 75.235,315.079 75.529,315.169 75.667 C 315.284 75.843,315.301 75.744,315.226 75.333 C 315.094 74.615,314.999 74.479,315.003 75.014 M249.419 75.214 C 249.580 75.468,249.754 75.635,249.805 75.584 C 249.856 75.533,249.725 75.324,249.512 75.120 L 249.126 74.750 249.419 75.214 M193.037 75.375 C 192.747 75.730,191.999 77.705,192.017 78.070 C 192.029 78.314,192.072 78.269,192.162 77.917 C 192.338 77.226,192.991 75.629,193.201 75.375 C 193.296 75.261,193.337 75.167,193.291 75.167 C 193.245 75.167,193.131 75.260,193.037 75.375 M320.583 75.500 C 320.521 75.697,320.507 75.896,320.553 75.942 C 320.599 75.988,320.687 75.864,320.750 75.667 C 320.813 75.470,320.826 75.271,320.780 75.225 C 320.735 75.179,320.646 75.303,320.583 75.500 M387.203 75.583 C 387.205 75.767,387.263 76.142,387.333 76.417 C 387.448 76.866,387.461 76.874,387.464 76.500 C 387.465 76.271,387.407 75.896,387.333 75.667 C 387.229 75.340,387.201 75.322,387.203 75.583 M395.999 86.333 L 395.917 97.083 391.708 97.083 C 389.394 97.083,387.500 97.140,387.500 97.208 C 387.500 97.277,389.411 97.333,391.747 97.333 L 395.994 97.333 396.085 96.958 C 396.134 96.752,396.154 91.858,396.129 86.083 L 396.082 75.583 395.999 86.333 M233.000 76.269 C 232.904 76.533,232.744 76.952,232.645 77.200 C 232.547 77.447,232.506 77.747,232.553 77.867 C 232.612 78.012,232.645 77.992,232.654 77.805 C 232.661 77.653,232.819 77.173,233.004 76.740 C 233.190 76.307,233.304 75.916,233.259 75.870 C 233.213 75.824,233.097 76.004,233.000 76.269 M249.846 75.958 C 249.871 76.213,250.476 77.410,250.488 77.229 C 250.503 76.996,250.025 75.833,249.914 75.833 C 249.870 75.833,249.839 75.890,249.846 75.958 M373.278 75.944 C 373.217 76.006,373.175 76.324,373.186 76.653 L 373.205 77.250 373.335 76.583 C 373.471 75.883,373.461 75.762,373.278 75.944 M183.583 76.667 C 183.519 77.046,183.502 77.391,183.545 77.433 C 183.587 77.476,183.672 77.199,183.733 76.817 C 183.794 76.435,183.812 76.090,183.772 76.050 C 183.732 76.010,183.647 76.288,183.583 76.667 M176.707 76.987 C 177.005 77.437,177.275 77.780,177.307 77.748 C 177.375 77.680,176.354 76.167,176.241 76.167 C 176.199 76.167,176.408 76.536,176.707 76.987 M223.926 76.926 C 223.863 77.260,223.845 77.567,223.886 77.608 C 223.927 77.649,224.011 77.409,224.074 77.074 C 224.137 76.740,224.155 76.433,224.114 76.392 C 224.073 76.351,223.989 76.591,223.926 76.926 M259.036 76.917 C 259.035 77.192,259.093 77.604,259.167 77.833 L 259.300 78.250 259.297 77.833 C 259.295 77.604,259.237 77.192,259.167 76.917 L 259.039 76.417 259.036 76.917 M320.259 77.093 C 320.197 77.427,320.183 77.738,320.229 77.784 C 320.274 77.830,320.363 77.594,320.426 77.259 C 320.489 76.925,320.503 76.614,320.457 76.568 C 320.411 76.522,320.322 76.758,320.259 77.093 M347.096 76.750 C 347.151 76.933,347.303 77.533,347.433 78.083 C 347.653 79.019,347.663 79.033,347.589 78.302 C 347.545 77.872,347.393 77.272,347.252 76.968 C 347.111 76.665,347.040 76.567,347.096 76.750 M218.705 77.167 C 218.705 77.487,218.740 77.619,218.782 77.458 C 218.823 77.298,218.823 77.035,218.782 76.875 C 218.740 76.715,218.705 76.846,218.705 77.167 M152.944 77.444 C 152.731 77.658,152.816 88.416,153.033 88.633 C 153.252 88.852,164.659 88.912,165.203 88.697 C 165.360 88.634,162.698 88.583,159.286 88.583 L 153.083 88.583 153.039 83.095 C 153.005 78.814,153.042 77.576,153.206 77.472 C 153.329 77.394,153.342 77.337,153.236 77.336 C 153.137 77.334,153.006 77.383,152.944 77.444 M164.833 77.500 C 165.476 77.706,165.818 77.706,165.500 77.500 C 165.362 77.411,165.063 77.345,164.833 77.352 L 164.417 77.367 164.833 77.500 M210.112 77.917 C 210.238 78.741,210.334 78.881,210.331 78.236 C 210.329 77.969,210.257 77.637,210.169 77.500 C 210.060 77.330,210.042 77.463,210.112 77.917 M250.531 77.750 C 250.536 77.933,250.597 78.308,250.667 78.583 L 250.794 79.083 250.802 78.583 C 250.806 78.308,250.745 77.933,250.667 77.750 L 250.523 77.417 250.531 77.750 M183.383 78.667 C 183.383 79.171,183.415 79.377,183.453 79.125 C 183.491 78.873,183.491 78.460,183.453 78.208 C 183.415 77.956,183.383 78.162,183.383 78.667 M166.667 78.030 C 168.290 79.504,168.575 79.730,167.917 79.023 C 167.550 78.629,167.100 78.228,166.917 78.131 C 166.733 78.034,166.621 77.989,166.667 78.030 M280.879 78.833 C 280.879 79.246,280.911 79.415,280.951 79.208 C 280.991 79.002,280.991 78.665,280.951 78.458 C 280.911 78.252,280.879 78.421,280.879 78.833 M315.732 80.417 C 315.733 81.700,315.759 82.203,315.791 81.534 C 315.822 80.866,315.822 79.816,315.790 79.201 C 315.758 78.586,315.732 79.133,315.732 80.417 M328.750 78.833 C 328.686 79.212,328.669 79.557,328.711 79.600 C 328.754 79.643,328.839 79.365,328.900 78.983 C 328.961 78.601,328.979 78.256,328.939 78.217 C 328.899 78.177,328.814 78.454,328.750 78.833 M232.272 78.708 C 232.137 79.211,232.161 81.843,232.303 82.202 C 232.366 82.359,232.417 81.553,232.417 80.410 C 232.417 78.148,232.418 78.163,232.272 78.708 M191.741 79.432 C 191.677 79.945,191.690 80.826,191.771 81.390 C 191.905 82.333,191.917 82.257,191.920 80.458 C 191.924 78.238,191.904 78.126,191.741 79.432 M223.730 80.417 C 223.731 81.517,223.758 81.945,223.790 81.368 C 223.823 80.792,223.823 79.892,223.790 79.368 C 223.757 78.845,223.730 79.317,223.730 80.417 M259.396 80.417 C 259.396 81.425,259.424 81.816,259.457 81.286 C 259.490 80.755,259.490 79.930,259.456 79.452 C 259.422 78.974,259.395 79.408,259.396 80.417 M210.333 80.417 C 210.333 81.226,210.375 81.847,210.426 81.796 C 210.477 81.745,210.519 81.125,210.519 80.417 C 210.519 79.709,210.477 79.088,210.426 79.037 C 210.375 78.986,210.333 79.607,210.333 80.417 M219.058 80.333 C 219.058 81.112,219.087 81.431,219.122 81.042 C 219.157 80.652,219.157 80.015,219.122 79.625 C 219.087 79.235,219.058 79.554,219.058 80.333 M250.776 80.792 C 250.718 81.685,250.630 82.642,250.581 82.917 C 250.496 83.401,250.498 83.404,250.674 83.000 C 250.859 82.574,251.119 79.167,250.966 79.167 C 250.920 79.167,250.834 79.898,250.776 80.792 M347.724 80.417 C 347.724 81.150,347.754 81.429,347.789 81.037 C 347.824 80.645,347.824 80.045,347.788 79.704 C 347.752 79.363,347.723 79.683,347.724 80.417 M320.055 80.417 C 320.055 81.058,320.086 81.300,320.122 80.955 C 320.158 80.609,320.157 80.084,320.120 79.788 C 320.083 79.492,320.054 79.775,320.055 80.417 M178.014 79.750 C 178.009 79.933,178.078 80.196,178.167 80.333 C 178.381 80.665,178.381 80.248,178.167 79.750 L 178.023 79.417 178.014 79.750 M178.370 81.250 C 178.368 81.525,178.427 81.938,178.500 82.167 L 178.633 82.583 178.630 82.167 C 178.629 81.938,178.570 81.525,178.500 81.250 L 178.373 80.750 178.370 81.250 M183.385 82.083 C 183.386 82.633,183.417 82.838,183.454 82.539 C 183.491 82.239,183.490 81.789,183.452 81.539 C 183.414 81.288,183.384 81.533,183.385 82.083 M169.250 82.983 C 169.250 83.901,169.301 84.524,169.363 84.368 C 169.506 84.010,169.503 82.211,169.358 81.698 C 169.299 81.486,169.250 82.064,169.250 82.983 M280.853 81.931 C 280.864 82.290,280.933 82.808,281.006 83.083 C 281.091 83.398,281.106 83.183,281.048 82.500 C 280.945 81.286,280.823 80.930,280.853 81.931 M347.383 82.832 C 346.963 85.081,345.537 87.181,343.502 88.551 C 342.999 88.890,342.647 89.167,342.720 89.167 C 342.962 89.167,344.743 87.874,345.281 87.308 C 346.460 86.068,347.785 83.164,347.638 82.141 C 347.608 81.931,347.494 82.239,347.383 82.832 M210.192 82.528 C 210.178 82.773,210.124 83.110,210.071 83.278 C 209.980 83.567,209.985 83.567,210.165 83.287 C 210.269 83.125,210.324 82.787,210.286 82.537 L 210.217 82.083 210.192 82.528 M192.004 82.769 C 191.974 85.301,196.098 89.415,199.000 89.748 C 199.701 89.828,199.687 89.817,198.793 89.588 C 195.751 88.806,193.452 86.652,192.417 83.616 C 192.192 82.956,192.007 82.575,192.004 82.769 M259.076 83.409 C 259.012 83.834,258.997 84.220,259.043 84.265 C 259.089 84.311,259.179 84.001,259.242 83.576 C 259.306 83.151,259.321 82.765,259.275 82.719 C 259.229 82.674,259.140 82.984,259.076 83.409 M232.516 83.083 C 232.519 83.267,232.704 83.792,232.929 84.250 C 233.358 85.124,233.332 84.967,232.820 83.583 C 232.651 83.125,232.514 82.900,232.516 83.083 M315.486 83.333 L 315.417 83.750 302.841 83.793 C 295.924 83.816,290.209 83.891,290.141 83.959 C 290.072 84.028,295.704 84.064,302.656 84.040 C 316.140 83.993,315.809 84.014,315.625 83.216 C 315.573 82.988,315.540 83.016,315.486 83.333 M320.190 83.250 C 320.190 83.433,320.255 83.733,320.333 83.917 L 320.477 84.250 320.477 83.917 C 320.477 83.733,320.412 83.433,320.333 83.250 L 320.190 82.917 320.190 83.250 M218.705 83.667 C 218.705 83.987,218.740 84.119,218.782 83.958 C 218.823 83.798,218.823 83.535,218.782 83.375 C 218.740 83.215,218.705 83.346,218.705 83.667 M223.862 83.417 C 223.864 83.600,223.927 83.938,224.000 84.167 L 224.133 84.583 224.138 84.167 C 224.141 83.938,224.079 83.600,224.000 83.417 L 223.857 83.083 223.862 83.417 M183.536 83.667 C 183.535 83.896,183.593 84.271,183.667 84.500 C 183.846 85.060,183.846 84.455,183.667 83.750 C 183.552 83.301,183.539 83.292,183.536 83.667 M250.119 84.174 C 249.964 84.569,249.869 84.925,249.909 84.964 C 250.010 85.066,250.519 83.808,250.455 83.614 C 250.426 83.527,250.275 83.778,250.119 84.174 M209.346 84.913 C 208.567 86.512,206.991 88.079,205.333 88.900 C 204.646 89.241,204.271 89.470,204.500 89.408 C 206.437 88.886,210.405 84.867,209.971 83.866 C 209.941 83.798,209.660 84.269,209.346 84.913 M178.436 85.311 C 178.370 85.803,178.352 86.241,178.396 86.285 C 178.507 86.396,178.717 84.902,178.628 84.635 C 178.588 84.515,178.501 84.819,178.436 85.311 M290.007 84.688 C 289.992 84.908,290.524 86.032,290.605 85.950 C 290.652 85.903,290.539 85.576,290.353 85.224 C 290.167 84.872,290.011 84.630,290.007 84.688 M320.523 84.833 C 320.523 84.971,320.588 85.233,320.667 85.417 C 320.757 85.627,320.810 85.658,320.810 85.500 C 320.810 85.362,320.745 85.100,320.667 84.917 C 320.576 84.707,320.523 84.676,320.523 84.833 M183.931 85.500 C 184.421 88.335,187.760 93.090,190.583 94.972 C 191.483 95.572,191.249 95.348,189.382 93.823 C 187.301 92.121,185.334 89.159,184.244 86.083 C 184.016 85.442,183.876 85.179,183.931 85.500 M258.417 86.167 C 258.354 86.364,258.340 86.563,258.386 86.608 C 258.432 86.654,258.521 86.530,258.583 86.333 C 258.646 86.136,258.660 85.937,258.614 85.892 C 258.568 85.846,258.479 85.970,258.417 86.167 M320.841 86.013 C 320.832 86.316,321.518 88.050,322.104 89.208 C 322.762 90.507,322.694 90.106,322.005 88.625 C 321.653 87.869,321.249 86.912,321.107 86.500 C 320.965 86.087,320.846 85.868,320.841 86.013 M248.522 86.831 C 247.556 88.033,245.696 89.124,243.833 89.581 C 243.329 89.704,243.104 89.810,243.333 89.816 C 244.774 89.852,247.793 88.109,248.860 86.625 C 249.354 85.937,249.131 86.074,248.522 86.831 M290.675 86.271 C 290.638 87.069,294.479 90.024,295.512 89.993 C 295.643 89.989,295.324 89.809,294.804 89.593 C 293.214 88.932,291.907 87.878,290.967 86.499 C 290.811 86.270,290.680 86.168,290.675 86.271 M281.846 86.667 C 281.845 86.907,282.315 87.861,282.327 87.644 C 282.331 87.586,282.224 87.286,282.090 86.977 C 281.956 86.669,281.846 86.529,281.846 86.667 M234.834 87.230 C 235.411 87.871,237.230 89.167,237.552 89.167 C 237.643 89.167,237.238 88.859,236.651 88.484 C 236.064 88.108,235.283 87.527,234.917 87.192 L 234.250 86.583 234.834 87.230 M331.333 87.393 C 331.746 87.833,332.233 88.272,332.417 88.369 C 332.600 88.466,332.712 88.512,332.667 88.471 C 332.621 88.430,332.133 87.991,331.583 87.495 L 330.583 86.594 331.333 87.393 M178.095 87.262 C 178.034 87.506,178.016 87.738,178.055 87.777 C 178.094 87.817,178.177 87.649,178.238 87.405 C 178.299 87.161,178.317 86.929,178.278 86.889 C 178.239 86.850,178.157 87.018,178.095 87.262 M306.095 88.103 C 303.982 90.046,300.650 90.857,297.256 90.252 C 295.749 89.983,295.355 90.036,296.697 90.326 C 299.338 90.898,301.904 90.643,304.083 89.591 C 305.283 89.013,307.581 87.328,307.155 87.340 C 307.024 87.344,306.547 87.687,306.095 88.103 M217.360 87.924 C 217.081 88.537,217.134 88.667,217.436 88.110 C 217.577 87.850,217.662 87.606,217.623 87.568 C 217.585 87.530,217.467 87.690,217.360 87.924 M307.833 87.555 C 307.833 87.592,308.452 87.978,309.208 88.414 C 310.863 89.368,313.725 91.041,313.814 91.108 C 314.258 91.440,310.471 94.986,308.693 95.904 C 308.386 96.062,308.175 96.231,308.223 96.279 C 308.673 96.729,314.000 91.994,314.000 91.144 C 314.000 91.081,312.781 90.321,311.292 89.456 C 308.232 87.680,307.833 87.461,307.833 87.555 M257.538 88.372 C 257.333 88.747,257.198 89.086,257.237 89.126 C 257.277 89.166,257.471 88.884,257.667 88.500 C 258.131 87.591,258.024 87.485,257.538 88.372 M225.507 88.533 C 225.493 88.752,226.644 90.584,227.162 91.167 C 227.530 91.580,227.472 91.452,226.966 90.727 C 226.572 90.165,226.085 89.415,225.882 89.061 C 225.680 88.706,225.511 88.469,225.507 88.533 M332.950 88.721 C 333.125 89.003,335.132 89.824,335.863 89.913 C 336.552 89.996,336.545 89.990,335.708 89.773 C 335.226 89.649,334.387 89.327,333.844 89.058 C 333.300 88.788,332.898 88.637,332.950 88.721 M282.917 89.167 C 283.059 89.442,283.213 89.667,283.259 89.667 C 283.304 89.667,283.226 89.442,283.083 89.167 C 282.941 88.892,282.787 88.667,282.741 88.667 C 282.696 88.667,282.774 88.892,282.917 89.167 M177.234 89.538 C 177.060 89.928,176.669 90.622,176.366 91.082 C 175.944 91.721,175.917 91.799,176.251 91.417 C 176.717 90.881,177.734 89.011,177.620 88.898 C 177.583 88.861,177.409 89.149,177.234 89.538 M238.167 89.417 C 238.396 89.548,238.733 89.654,238.917 89.653 C 239.100 89.653,238.950 89.544,238.583 89.412 C 237.748 89.111,237.634 89.112,238.167 89.417 M256.756 89.764 C 256.600 90.002,256.511 90.234,256.558 90.280 C 256.604 90.326,256.762 90.132,256.909 89.849 C 257.233 89.222,257.144 89.173,256.756 89.764 M340.583 89.768 L 339.750 89.996 340.484 89.909 C 340.888 89.860,341.338 89.751,341.484 89.666 C 341.831 89.463,341.604 89.488,340.583 89.768 M201.167 89.833 L 199.750 89.938 201.083 89.949 C 201.817 89.955,202.642 89.903,202.917 89.833 C 203.529 89.678,203.276 89.678,201.167 89.833 M239.750 89.840 C 240.261 89.963,242.945 90.050,242.819 89.939 C 242.781 89.905,241.963 89.842,241.000 89.799 C 240.037 89.755,239.475 89.774,239.750 89.840 M283.333 89.908 C 283.333 91.033,287.490 94.894,290.156 96.244 C 291.455 96.903,291.389 96.732,290.075 96.034 C 287.593 94.716,285.149 92.560,283.976 90.653 C 283.520 89.912,283.333 89.696,283.333 89.908 M337.375 90.123 C 337.810 90.157,338.523 90.157,338.958 90.123 C 339.394 90.088,339.037 90.060,338.167 90.060 C 337.296 90.060,336.940 90.088,337.375 90.123 M255.833 91.116 C 254.740 92.725,252.193 94.970,250.452 95.858 C 250.094 96.040,249.842 96.231,249.893 96.282 C 250.042 96.431,252.761 94.549,253.836 93.554 C 254.843 92.622,256.610 90.499,256.378 90.501 C 256.308 90.502,256.063 90.778,255.833 91.116 M323.087 90.833 C 324.030 92.572,327.246 95.523,329.369 96.601 C 330.658 97.255,330.504 97.054,329.105 96.257 C 327.101 95.115,325.354 93.598,323.915 91.750 C 323.137 90.750,322.898 90.486,323.087 90.833 M215.062 91.622 C 214.223 92.649,213.312 93.530,212.125 94.463 C 211.012 95.338,210.836 95.605,211.875 94.842 C 213.197 93.872,214.248 92.885,215.053 91.858 C 215.995 90.656,216.002 90.473,215.062 91.622 M228.000 92.246 C 229.384 93.894,233.136 96.684,233.940 96.663 C 234.019 96.661,233.623 96.411,233.061 96.108 C 231.625 95.334,230.461 94.463,228.917 93.007 C 228.183 92.316,227.771 91.973,228.000 92.246 M174.750 92.905 C 174.292 93.377,173.617 94.010,173.250 94.312 C 172.655 94.803,172.646 94.820,173.167 94.473 C 173.870 94.005,175.985 92.003,175.750 92.030 C 175.658 92.040,175.208 92.434,174.750 92.905 M171.750 95.246 C 171.383 95.471,171.135 95.659,171.199 95.661 C 171.343 95.668,172.500 94.991,172.500 94.900 C 172.500 94.792,172.449 94.815,171.750 95.246 M209.333 96.203 C 208.463 96.657,207.938 96.976,208.167 96.910 C 208.700 96.756,210.316 95.938,210.750 95.602 C 211.239 95.223,211.080 95.291,209.333 96.203 M191.500 95.577 C 191.500 95.622,191.800 95.813,192.167 96.000 C 192.533 96.187,192.833 96.303,192.833 96.257 C 192.833 96.211,192.533 96.020,192.167 95.833 C 191.800 95.646,191.500 95.531,191.500 95.577 M168.833 96.500 C 168.611 96.644,168.611 96.662,168.833 96.662 C 168.971 96.662,169.196 96.589,169.333 96.500 C 169.556 96.356,169.556 96.338,169.333 96.338 C 169.196 96.338,168.971 96.411,168.833 96.500 M248.417 96.790 C 247.867 97.026,246.779 97.388,246.000 97.596 C 245.221 97.804,244.699 97.980,244.840 97.987 C 245.471 98.019,249.181 96.836,249.575 96.478 C 249.838 96.238,249.484 96.333,248.417 96.790 M167.500 96.833 C 167.170 96.939,167.153 96.967,167.417 96.967 C 167.600 96.967,167.938 96.907,168.167 96.833 C 168.497 96.728,168.514 96.700,168.250 96.700 C 168.067 96.700,167.729 96.760,167.500 96.833 M194.316 97.015 C 194.719 97.194,195.083 97.306,195.126 97.263 C 195.218 97.171,194.039 96.662,193.771 96.678 C 193.668 96.685,193.913 96.836,194.316 97.015 M235.333 97.216 C 235.757 97.457,236.975 97.753,236.793 97.570 C 236.738 97.516,236.443 97.411,236.138 97.338 C 235.833 97.265,235.433 97.154,235.250 97.092 C 235.046 97.023,235.079 97.071,235.333 97.216 M330.833 97.216 C 331.282 97.472,332.167 97.723,332.167 97.594 C 332.167 97.551,331.923 97.445,331.625 97.359 C 331.327 97.273,330.933 97.152,330.750 97.091 C 330.544 97.021,330.575 97.069,330.833 97.216 M341.667 97.318 C 340.940 97.595,339.440 97.936,338.417 98.058 C 338.028 98.104,338.065 98.121,338.583 98.136 C 339.445 98.160,341.743 97.596,342.446 97.187 C 342.890 96.929,342.527 96.990,341.667 97.318 M195.982 97.584 C 196.384 97.709,197.021 97.852,197.398 97.902 C 197.838 97.960,197.665 97.877,196.917 97.672 C 195.585 97.306,194.878 97.240,195.982 97.584 M206.000 97.508 C 205.817 97.631,205.885 97.647,206.250 97.565 C 206.863 97.428,206.996 97.332,206.569 97.336 C 206.394 97.337,206.137 97.415,206.000 97.508 M293.181 97.393 C 293.219 97.426,293.475 97.503,293.750 97.565 C 294.115 97.647,294.183 97.631,294.000 97.508 C 293.775 97.355,293.013 97.249,293.181 97.393 M304.750 97.500 C 304.540 97.590,304.509 97.643,304.667 97.643 C 304.804 97.643,305.067 97.579,305.250 97.500 C 305.460 97.410,305.491 97.357,305.333 97.357 C 305.196 97.357,304.933 97.421,304.750 97.500 M237.333 97.833 C 237.563 97.907,237.900 97.967,238.083 97.967 C 238.347 97.967,238.330 97.939,238.000 97.833 C 237.771 97.760,237.433 97.700,237.250 97.700 C 236.986 97.700,237.003 97.728,237.333 97.833 M303.167 97.833 C 302.606 98.013,303.212 98.013,303.917 97.833 C 304.366 97.719,304.374 97.706,304.000 97.703 C 303.771 97.701,303.396 97.760,303.167 97.833 M333.083 97.915 C 333.542 98.050,334.217 98.151,334.583 98.140 C 335.233 98.120,335.229 98.117,334.417 98.005 C 333.958 97.942,333.283 97.841,332.917 97.780 C 332.339 97.685,332.362 97.703,333.083 97.915 M295.667 98.001 C 296.079 98.132,297.787 98.223,297.653 98.107 C 297.615 98.074,297.058 98.007,296.417 97.958 C 295.739 97.906,295.424 97.924,295.667 98.001 M198.458 98.118 C 198.665 98.157,199.002 98.157,199.208 98.118 C 199.415 98.078,199.246 98.045,198.833 98.045 C 198.421 98.045,198.252 98.078,198.458 98.118 M202.958 98.118 C 203.165 98.157,203.502 98.157,203.708 98.118 C 203.915 98.078,203.746 98.045,203.333 98.045 C 202.921 98.045,202.752 98.078,202.958 98.118 M238.877 98.120 C 239.131 98.158,239.506 98.157,239.711 98.117 C 239.916 98.078,239.708 98.046,239.250 98.048 C 238.792 98.049,238.624 98.081,238.877 98.120 M243.458 98.118 C 243.665 98.157,244.002 98.157,244.208 98.118 C 244.415 98.078,244.246 98.045,243.833 98.045 C 243.421 98.045,243.252 98.078,243.458 98.118 M301.544 98.120 C 301.797 98.158,302.172 98.157,302.377 98.117 C 302.582 98.078,302.375 98.046,301.917 98.048 C 301.458 98.049,301.291 98.081,301.544 98.120 M200.463 98.289 C 200.855 98.324,201.455 98.324,201.796 98.288 C 202.137 98.252,201.817 98.223,201.083 98.224 C 200.350 98.224,200.071 98.254,200.463 98.289 M240.963 98.289 C 241.355 98.324,241.955 98.324,242.296 98.288 C 242.637 98.252,242.317 98.223,241.583 98.224 C 240.850 98.224,240.571 98.254,240.963 98.289 M298.713 98.289 C 299.152 98.324,299.827 98.323,300.213 98.288 C 300.600 98.254,300.242 98.225,299.417 98.226 C 298.592 98.226,298.275 98.255,298.713 98.289 M335.955 98.287 C 336.250 98.324,336.775 98.324,337.121 98.288 C 337.467 98.252,337.225 98.222,336.583 98.221 C 335.942 98.221,335.659 98.250,335.955 98.287 " stroke="none" fill="#1c8bff" fill-rule="evenodd"></path><path id="path3" d="M1.601 3.930 C 1.382 4.501,1.489 114.506,1.708 114.587 C 2.065 114.719,29.333 114.757,29.333 114.626 C 29.333 114.558,23.165 114.483,15.625 114.459 L 1.917 114.417 1.917 59.250 L 1.917 4.083 27.917 4.035 C 54.908 3.984,55.372 3.994,58.748 4.690 C 69.604 6.927,79.010 15.542,81.833 25.833 C 81.946 26.246,82.100 26.771,82.176 27.000 C 82.251 27.229,82.480 28.317,82.683 29.417 C 83.024 31.258,83.212 31.844,83.400 31.655 C 83.667 31.389,82.315 25.813,81.422 23.496 C 78.097 14.860,69.861 7.244,61.417 4.995 C 56.285 3.629,57.321 3.670,27.809 3.668 C 4.156 3.667,1.693 3.691,1.601 3.930 M265.507 47.653 C 265.215 48.199,265.269 97.239,265.562 97.482 C 265.724 97.616,267.062 97.659,270.104 97.628 L 274.417 97.583 274.417 72.500 L 274.417 47.417 270.049 47.372 C 265.865 47.330,265.674 47.341,265.507 47.653 M274.333 72.586 L 274.333 97.506 269.958 97.461 L 265.583 97.417 265.541 72.750 C 265.517 59.183,265.533 47.990,265.577 47.875 C 265.638 47.716,266.677 47.667,269.995 47.667 L 274.333 47.667 274.333 72.586 M143.875 49.664 L 143.500 49.823 143.500 73.661 L 143.500 97.500 154.732 97.500 C 168.456 97.500,169.128 97.412,172.591 95.151 C 180.511 89.981,181.123 78.488,173.750 73.409 C 172.645 72.648,172.650 72.802,173.692 71.777 C 175.020 70.469,176.687 67.608,176.658 66.686 C 176.653 66.538,176.533 66.717,176.390 67.083 C 175.600 69.112,174.560 70.744,173.264 71.991 C 172.490 72.735,172.508 72.864,173.475 73.484 C 179.971 77.653,180.484 87.975,174.465 93.421 C 172.977 94.768,171.016 95.922,169.133 96.559 C 167.027 97.271,165.617 97.342,154.417 97.295 L 143.750 97.250 143.750 73.583 L 143.750 49.917 153.583 49.871 C 164.362 49.820,165.638 49.902,168.073 50.796 C 172.017 52.245,175.243 55.475,176.350 59.083 C 176.462 59.450,176.587 59.652,176.627 59.533 C 176.784 59.067,175.674 56.747,174.640 55.381 C 173.455 53.815,171.418 52.000,170.845 52.000 C 170.747 52.000,170.667 51.925,170.667 51.833 C 170.667 51.742,170.584 51.667,170.484 51.667 C 170.384 51.667,170.102 51.526,169.859 51.354 C 169.223 50.905,167.186 50.205,165.608 49.894 C 164.012 49.579,144.564 49.373,143.875 49.664 M153.111 58.611 C 152.972 58.750,152.963 68.542,153.101 68.903 C 153.212 69.191,161.975 69.311,163.188 69.042 C 163.502 68.972,161.438 68.880,158.500 68.833 L 153.250 68.750 153.250 63.750 L 153.250 58.750 158.000 58.702 C 165.588 58.626,167.292 59.561,167.349 63.833 C 167.366 65.132,167.382 65.196,167.540 64.601 C 168.133 62.358,166.364 59.467,163.962 58.754 C 163.072 58.490,153.361 58.362,153.111 58.611 M176.688 60.083 C 176.687 60.267,176.748 60.717,176.824 61.083 L 176.962 61.750 176.969 61.083 C 176.973 60.717,176.912 60.267,176.833 60.083 L 176.690 59.750 176.688 60.083 M177.055 63.250 C 177.055 63.892,177.086 64.134,177.122 63.788 C 177.158 63.442,177.157 62.917,177.120 62.621 C 177.083 62.325,177.054 62.608,177.055 63.250 M197.833 62.578 C 195.778 62.956,193.260 63.833,194.230 63.833 C 194.368 63.833,194.521 63.767,194.571 63.687 C 194.621 63.606,194.832 63.501,195.039 63.453 C 195.247 63.406,195.829 63.255,196.333 63.118 C 198.727 62.470,202.159 62.347,204.583 62.824 C 205.042 62.914,205.679 63.027,206.000 63.075 L 206.583 63.163 206.083 62.992 C 204.240 62.361,200.131 62.155,197.833 62.578 M238.250 62.594 C 237.608 62.717,236.858 62.896,236.583 62.991 L 236.083 63.163 236.667 63.075 C 236.987 63.027,237.625 62.914,238.083 62.824 C 241.167 62.218,245.619 62.597,248.083 63.676 C 248.267 63.756,248.858 64.013,249.398 64.245 C 260.386 68.985,262.922 84.941,254.028 93.371 C 243.521 103.329,225.892 97.373,223.827 83.167 L 223.693 82.250 223.736 83.250 C 224.005 89.518,229.900 96.141,236.811 97.938 C 251.347 101.720,263.701 87.881,258.481 73.667 C 255.635 65.918,246.621 60.984,238.250 62.594 M295.417 62.520 C 293.081 63.053,292.298 63.274,291.333 63.672 C 287.185 65.384,283.653 68.931,282.043 73.000 C 281.952 73.229,281.797 73.604,281.699 73.833 C 280.504 76.608,280.340 82.531,281.366 85.833 C 281.465 86.154,281.576 86.521,281.611 86.649 C 281.646 86.777,281.715 86.840,281.765 86.790 C 281.815 86.740,281.735 86.298,281.587 85.808 C 278.698 76.220,284.047 65.722,293.085 63.243 C 304.164 60.203,314.049 66.503,315.673 77.639 C 315.927 79.379,315.819 83.365,315.509 83.739 C 315.316 83.972,313.918 84.000,302.724 84.000 C 288.451 84.000,289.693 83.837,290.527 85.600 C 292.985 90.800,301.578 92.177,306.114 88.099 C 307.051 87.257,307.263 87.203,308.050 87.607 C 309.345 88.273,314.000 91.040,314.000 91.144 C 314.000 92.519,309.246 96.146,305.992 97.253 C 296.646 100.431,286.561 96.637,282.586 88.447 C 282.178 87.605,281.842 87.026,281.839 87.159 C 281.818 88.079,284.218 91.874,285.810 93.441 C 292.450 99.975,305.076 100.287,311.857 94.083 C 314.050 92.078,314.549 91.039,313.583 90.495 C 313.308 90.340,312.183 89.689,311.083 89.049 C 307.158 86.763,307.167 86.767,306.686 87.298 C 303.404 90.921,295.990 91.155,292.350 87.749 C 291.317 86.784,290.018 84.426,290.431 84.268 C 290.576 84.212,296.308 84.167,303.170 84.167 C 311.928 84.167,315.680 84.113,315.758 83.987 C 315.996 83.602,316.145 80.231,315.998 78.555 C 315.273 70.309,309.816 64.154,301.833 62.580 C 300.449 62.307,296.512 62.270,295.417 62.520 M333.667 62.529 C 332.468 62.778,330.163 63.538,330.049 63.722 C 329.983 63.829,330.062 63.841,330.264 63.757 C 335.901 61.400,342.787 62.454,346.493 66.241 C 347.573 67.344,347.647 67.286,347.703 65.292 L 347.750 63.583 352.000 63.583 L 356.250 63.583 356.250 80.417 L 356.250 97.250 352.095 97.295 C 347.278 97.346,347.673 97.518,347.669 95.375 C 347.666 93.550,347.628 93.530,346.357 94.694 C 337.975 102.370,323.186 97.027,320.678 85.417 C 320.559 84.867,320.382 84.154,320.285 83.833 C 319.409 80.934,320.431 74.726,322.370 71.167 C 323.788 68.565,326.535 65.749,328.887 64.488 C 329.420 64.202,329.823 63.934,329.781 63.892 C 329.541 63.652,326.678 65.674,325.278 67.074 C 322.599 69.753,321.120 72.521,320.152 76.667 C 319.868 77.886,319.868 82.947,320.152 84.167 C 321.314 89.144,323.600 92.804,327.217 95.475 C 332.853 99.639,340.931 99.567,346.004 95.307 C 347.491 94.059,347.479 94.054,347.535 95.875 L 347.583 97.417 352.022 97.461 L 356.460 97.505 356.561 97.128 C 356.733 96.487,356.677 63.775,356.504 63.500 C 356.303 63.183,348.403 63.029,347.838 63.331 C 347.537 63.492,347.500 63.676,347.500 64.996 C 347.500 66.652,347.394 66.847,346.821 66.237 C 344.030 63.266,338.128 61.602,333.667 62.529 M380.417 62.526 C 377.716 63.166,376.125 63.964,374.435 65.524 L 373.417 66.465 373.369 64.985 C 373.327 63.706,373.276 63.481,372.989 63.328 C 372.430 63.028,364.528 63.186,364.330 63.500 C 364.135 63.808,364.112 96.989,364.306 97.294 C 364.410 97.458,365.432 97.496,368.845 97.461 L 373.250 97.417 373.346 87.083 C 373.403 80.889,373.510 76.470,373.613 76.051 C 374.271 73.377,376.297 71.458,379.035 70.914 C 379.802 70.762,379.936 70.701,379.536 70.687 C 377.643 70.618,375.072 72.319,374.086 74.291 C 373.213 76.040,373.173 76.603,373.170 87.111 C 373.168 92.443,373.121 96.925,373.066 97.070 C 372.977 97.300,372.439 97.333,368.752 97.333 L 364.539 97.333 364.438 96.958 C 364.286 96.388,364.319 63.947,364.473 63.705 C 364.576 63.542,365.565 63.504,368.845 63.539 L 373.083 63.583 373.128 65.000 C 373.192 67.017,373.197 67.021,374.295 65.918 C 376.737 63.464,379.872 62.349,383.752 62.554 C 385.987 62.673,387.088 62.880,388.125 63.376 C 388.331 63.475,388.540 63.516,388.589 63.466 C 388.728 63.328,387.032 62.730,385.907 62.521 C 384.710 62.299,381.363 62.302,380.417 62.526 M206.681 63.233 C 206.847 63.393,208.897 64.159,208.968 64.088 C 209.011 64.045,208.867 63.941,208.648 63.858 C 208.429 63.774,207.960 63.585,207.605 63.436 C 207.005 63.186,206.520 63.079,206.681 63.233 M235.000 63.449 C 234.679 63.589,234.238 63.773,234.019 63.857 C 233.800 63.941,233.656 64.045,233.699 64.088 C 233.770 64.159,235.820 63.393,235.986 63.233 C 236.146 63.080,235.541 63.212,235.000 63.449 M388.917 63.667 C 388.973 63.758,389.105 63.833,389.210 63.833 C 389.603 63.833,391.621 65.339,392.594 66.358 C 394.140 67.978,395.241 70.204,395.838 72.917 C 396.068 73.962,396.303 96.103,396.093 96.939 L 395.994 97.333 391.747 97.333 L 387.500 97.333 387.480 87.125 C 387.469 81.510,387.403 76.692,387.333 76.417 C 387.263 76.142,387.198 80.679,387.189 86.500 C 387.179 92.321,387.232 97.178,387.306 97.294 C 387.410 97.458,388.432 97.496,391.845 97.461 L 396.250 97.417 396.250 85.750 C 396.250 73.211,396.233 72.912,395.373 70.583 C 394.420 68.001,392.907 65.990,390.917 64.661 C 390.458 64.356,390.046 64.063,390.000 64.011 C 389.682 63.652,388.718 63.345,388.917 63.667 M192.833 64.209 C 192.421 64.406,192.058 64.628,192.028 64.701 C 191.997 64.774,191.894 64.833,191.799 64.833 C 191.525 64.833,189.600 66.258,188.510 67.268 C 181.199 74.037,181.204 86.723,188.521 93.590 C 195.776 100.400,207.459 100.134,214.259 93.005 C 215.420 91.787,216.662 90.171,216.665 89.875 C 216.666 89.760,216.723 89.666,216.792 89.664 C 217.165 89.656,218.977 84.848,218.803 84.326 C 218.764 84.210,218.630 84.557,218.505 85.099 C 216.037 95.757,203.036 101.491,192.917 96.385 C 180.188 89.962,180.023 71.118,192.638 64.549 C 194.187 63.743,194.331 63.492,192.833 64.209 M209.167 64.247 C 209.167 64.291,209.524 64.509,209.961 64.730 C 213.905 66.729,217.138 70.900,218.566 75.833 C 218.712 76.337,218.799 76.525,218.759 76.250 C 218.643 75.448,218.486 74.778,218.321 74.375 C 217.609 72.644,217.226 71.827,216.740 71.007 C 215.732 69.306,213.484 66.853,212.000 65.834 C 211.679 65.613,211.379 65.385,211.333 65.327 C 211.120 65.056,209.167 64.083,209.167 64.247 M232.922 64.385 C 230.624 65.777,228.336 67.710,227.159 69.254 C 224.641 72.554,222.873 78.410,223.460 81.500 C 223.578 82.122,223.622 81.822,223.717 79.750 C 223.779 78.375,223.949 76.800,224.093 76.250 C 224.237 75.700,224.413 75.024,224.484 74.747 C 224.864 73.273,226.246 70.747,227.667 68.930 C 228.835 67.436,231.112 65.538,232.703 64.732 C 233.141 64.510,233.500 64.291,233.500 64.247 C 233.500 64.118,233.275 64.171,232.922 64.385 M176.775 65.390 C 176.702 65.834,176.681 66.237,176.729 66.285 C 176.869 66.424,177.032 65.587,176.967 65.062 C 176.920 64.673,176.884 64.734,176.775 65.390 M167.019 65.861 C 166.729 66.738,165.635 67.903,164.632 68.403 C 163.712 68.861,163.749 68.992,164.688 68.596 C 165.765 68.141,167.493 66.060,167.292 65.460 C 167.253 65.345,167.130 65.525,167.019 65.861 M297.250 70.500 C 296.808 70.579,297.256 70.621,298.583 70.624 C 300.055 70.627,300.407 70.592,299.917 70.490 C 299.137 70.329,298.185 70.333,297.250 70.500 M295.329 70.907 C 292.589 71.917,289.823 74.988,290.031 76.791 L 290.083 77.250 298.500 77.250 L 306.917 77.250 306.970 76.781 C 307.197 74.806,303.663 71.130,301.167 70.744 C 300.737 70.678,300.851 70.757,301.602 71.048 C 304.241 72.068,306.833 74.888,306.833 76.739 C 306.833 76.972,305.951 77.000,298.500 77.000 C 288.951 77.000,289.809 77.195,290.750 75.240 C 291.783 73.090,293.369 71.719,295.667 70.989 C 296.171 70.828,296.433 70.696,296.250 70.694 C 296.067 70.692,295.652 70.788,295.329 70.907 M381.667 70.833 C 381.896 70.907,382.257 70.974,382.469 70.983 C 384.254 71.060,386.954 73.758,387.013 75.524 C 387.021 75.743,387.066 75.816,387.117 75.689 C 387.753 74.090,384.047 70.637,381.750 70.689 C 381.261 70.700,381.259 70.703,381.667 70.833 M336.333 70.931 C 335.638 71.055,334.593 71.383,334.425 71.529 C 334.338 71.605,334.165 71.667,334.041 71.667 C 332.507 71.667,328.952 76.240,329.015 78.133 C 329.026 78.462,329.091 78.360,329.258 77.753 C 329.579 76.579,330.192 75.292,330.833 74.444 C 333.964 70.304,340.780 69.810,344.602 73.447 C 347.796 76.485,348.345 82.062,345.830 85.921 C 342.884 90.444,335.472 91.138,331.576 87.256 C 331.069 86.751,329.833 84.886,329.833 84.626 C 329.833 84.502,329.764 84.329,329.678 84.242 C 329.593 84.155,329.412 83.671,329.277 83.167 C 329.116 82.569,329.025 82.401,329.015 82.685 C 329.007 82.925,329.220 83.654,329.488 84.305 C 332.958 92.718,345.552 91.626,347.416 82.750 C 348.914 75.616,343.342 69.674,336.333 70.931 M198.899 71.245 C 188.735 73.733,190.002 89.068,200.431 89.784 C 206.390 90.194,210.569 85.939,210.288 79.750 C 210.019 73.831,204.666 69.833,198.899 71.245 M239.302 71.251 C 233.562 72.505,230.655 79.184,233.353 84.917 C 236.564 91.738,247.451 91.285,250.115 84.219 C 252.959 76.676,247.027 69.562,239.302 71.251 M202.867 71.344 C 205.185 71.810,207.179 73.026,208.334 74.678 C 208.554 74.993,208.779 75.287,208.835 75.333 C 209.553 75.928,210.216 78.755,210.125 80.833 C 209.600 92.739,192.167 92.342,192.167 80.425 C 192.167 74.456,197.180 70.201,202.867 71.344 M243.320 71.357 C 252.577 72.967,253.092 86.905,243.981 89.272 C 237.887 90.855,232.593 86.693,232.611 80.333 C 232.629 74.296,237.369 70.323,243.320 71.357 M218.857 77.167 C 218.858 77.396,218.918 77.921,218.991 78.333 L 219.125 79.083 219.134 78.250 C 219.139 77.792,219.079 77.267,219.000 77.083 C 218.869 76.780,218.857 76.787,218.857 77.167 M153.206 77.468 C 153.042 77.575,153.005 78.816,153.039 83.095 L 153.083 88.583 159.250 88.583 L 165.417 88.583 166.392 88.089 C 170.579 85.970,170.202 79.315,165.807 77.742 C 164.847 77.398,153.682 77.155,153.206 77.468 M164.789 77.689 C 170.633 79.082,170.659 87.229,164.823 88.335 C 163.892 88.512,153.870 88.568,153.430 88.399 C 153.086 88.267,153.025 78.042,153.367 77.700 C 153.639 77.428,163.653 77.419,164.789 77.689 M328.746 79.721 C 328.685 80.209,328.710 80.940,328.800 81.346 C 328.949 82.016,328.966 81.936,328.982 80.458 C 329.002 78.652,328.914 78.377,328.746 79.721 M219.031 82.018 C 219.014 82.258,218.961 82.820,218.912 83.268 C 218.840 83.945,218.855 84.014,219.003 83.674 C 219.101 83.448,219.155 82.886,219.122 82.424 C 219.089 81.961,219.048 81.779,219.031 82.018 " stroke="none" fill="#66b1ff" fill-rule="evenodd"></path><path id="path4" d="M83.325 31.792 C 83.321 31.860,83.325 33.042,83.333 34.416 C 83.390 43.354,80.024 51.201,73.480 57.391 C 71.336 59.420,71.387 59.200,72.792 60.371 C 74.779 62.028,77.207 64.890,78.699 67.333 C 90.484 86.628,79.052 110.816,56.486 114.329 C 55.807 114.435,50.438 114.500,42.379 114.500 C 30.669 114.500,29.359 114.526,29.268 114.764 C 29.136 115.108,29.136 141.725,29.268 142.070 C 29.391 142.391,80.481 142.476,83.250 142.159 C 110.574 139.035,120.673 105.408,99.685 87.439 L 99.127 86.962 100.717 85.480 C 112.804 74.211,114.422 56.471,104.540 43.583 C 101.835 40.056,97.146 36.252,93.500 34.628 C 92.904 34.362,92.108 34.004,91.731 33.832 C 90.242 33.154,87.339 32.328,84.981 31.913 C 83.362 31.628,83.336 31.626,83.325 31.792 " stroke="none" fill="#fb7ba0" fill-rule="evenodd"></path></g></svg>